<svg width="21" height="23" viewBox="0 0 21 23" fill="none" xmlns="http://www.w3.org/2000/svg">
<path d="M20.7318 13.9536L18.8477 12.8377C19.0379 11.7853 19.0379 10.7056 18.8477 9.65323L20.7318 8.53731C20.9485 8.41029 21.0458 8.14719 20.975 7.90223C20.4841 6.28732 19.6482 4.82664 18.5558 3.61092C18.3877 3.42493 18.1135 3.37957 17.9012 3.50658L16.0172 4.6225C15.2255 3.92392 14.3144 3.3841 13.3281 3.03027V0.802963C13.3281 0.548931 13.1557 0.326654 12.9124 0.272219C11.2893 -0.0997555 9.62632 -0.0816104 8.08279 0.272219C7.83954 0.326654 7.66706 0.548931 7.66706 0.802963V3.03481C6.68521 3.39317 5.77413 3.93299 4.97804 4.62704L3.09839 3.51112C2.88167 3.3841 2.61189 3.42493 2.44382 3.61545C1.35141 4.82664 0.515518 6.28732 0.0245956 7.90677C-0.0505906 8.15172 0.0511319 8.41483 0.267845 8.54184L2.15192 9.65777C1.96175 10.7102 1.96175 11.7898 2.15192 12.8422L0.267845 13.9582C0.0511319 14.0852 -0.0461679 14.3483 0.0245956 14.5932C0.515518 16.2081 1.35141 17.6688 2.44382 18.8845C2.61189 19.0705 2.8861 19.1159 3.09839 18.9889L4.98246 17.873C5.77413 18.5715 6.68521 19.1114 7.67148 19.4652V21.697C7.67148 21.9511 7.84397 22.1733 8.08721 22.2278C9.71035 22.5998 11.3733 22.5816 12.9168 22.2278C13.1601 22.1733 13.3326 21.9511 13.3326 21.697V19.4652C14.3144 19.1068 15.2255 18.567 16.0216 17.873L17.9057 18.9889C18.1224 19.1159 18.3922 19.0751 18.5602 18.8845C19.6526 17.6734 20.4885 16.2127 20.9794 14.5932C21.0458 14.3437 20.9485 14.0806 20.7318 13.9536ZM10.4976 14.8745C8.54718 14.8745 6.95942 13.246 6.95942 11.2455C6.95942 9.24497 8.54718 7.61644 10.4976 7.61644C12.448 7.61644 14.0358 9.24497 14.0358 11.2455C14.0358 13.246 12.448 14.8745 10.4976 14.8745Z" fill="white"/>
</svg>
